<?xml version="1.0" encoding="iso-8859-1"?>
<!-- Uploaded to: SVG Repo, www.svgrepo.com, Generator: SVG Repo Mixer Tools -->
<svg version="1.1" id="Layer_1" xmlns="http://www.w3.org/2000/svg" xmlns:xlink="http://www.w3.org/1999/xlink" 
	 viewBox="0 0 506 506" xml:space="preserve">
<circle style="fill:#84DBFF;" cx="253" cy="253" r="253"/>
<g>
	<path style="fill:#324A5E;" d="M122,295.1v73.6c0,7.3,5.9,13.3,13.3,13.3h14.4V281.8h-14.4C128,281.8,122,287.8,122,295.1z"/>
	<path style="fill:#324A5E;" d="M370.7,281.8h-14.4V382h14.4c7.3,0,13.3-6,13.3-13.3v-73.6C384,287.8,378,281.8,370.7,281.8z"/>
	<path style="fill:#324A5E;" d="M210.4,108.2v24.3h85.3v-24.3c0-10.6-8.6-19.2-19.2-19.2h-46.8C219,88.9,210.4,97.6,210.4,108.2z
		 M226.4,132.1V109c0-2.2,1.8-4,4-4h45.3c2.2,0,4,1.8,4,4v23.1H226.4z"/>
	<path style="fill:#324A5E;" d="M279.5,121.5h-53c-44.7,0-81,36.3-81,81v103.4h2.1h2.1h206.6h2.1h2.1V202.5
		C360.5,157.8,324.2,121.5,279.5,121.5z"/>
</g>
<path style="fill:#5D6D7E;" d="M145.5,255.8v137.5c0,9.8,8,17.8,17.8,17.8h179.4c9.8,0,17.8-8,17.8-17.8V255.8"/>
<path style="fill:#2B3B4E;" d="M360.5,229.2c0-44.7-36.3-81-81-81h-53c-44.7,0-81,36.3-81,81h2.1l0,0h210.8l0,0H360.5z"/>
<rect x="145.5" y="244.8" style="fill:#231F20;" width="4.2" height="2.1"/>
<path style="fill:#1C2A38;" d="M149.7,238.8l-4.2-0.1c0-1.4,0.1-2.9,0.3-4.3l4.1,0.4C149.8,236.1,149.8,237.5,149.7,238.8z
	 M356.3,238.7c0-1.4-0.1-2.7-0.2-4l4.1-0.4c0.1,1.4,0.2,2.8,0.3,4.3L356.3,238.7z M150.4,230.8l-4.1-0.6c0.2-1.4,0.4-2.8,0.7-4.2
	l4.1,0.8C150.8,228.1,150.6,229.4,150.4,230.8z M355.6,230.6c-0.2-1.3-0.4-2.7-0.7-4l4.1-0.8c0.3,1.4,0.5,2.8,0.7,4.2L355.6,230.6z
	 M151.9,222.8l-4-1c0.3-1.4,0.7-2.8,1.1-4.1l4,1.2C152.6,220.2,152.3,221.5,151.9,222.8z M354,222.7c-0.3-1.3-0.7-2.6-1.1-3.9l4-1.2
	c0.4,1.4,0.8,2.7,1.1,4.1L354,222.7z M154.3,215.1l-3.9-1.4c0.5-1.3,1-2.7,1.6-4l3.8,1.6C155.3,212.5,154.8,213.8,154.3,215.1z
	 M351.6,214.9c-0.5-1.3-1-2.5-1.5-3.8l3.8-1.6c0.6,1.3,1.1,2.6,1.6,4L351.6,214.9z M157.5,207.6l-3.7-1.8c0.6-1.3,1.3-2.5,2-3.8
	l3.6,2C158.7,205.2,158.1,206.4,157.5,207.6z M348.5,207.5c-0.6-1.2-1.2-2.4-1.9-3.6l3.6-2c0.7,1.2,1.4,2.5,2,3.8L348.5,207.5z
	 M161.4,200.5l-3.5-2.2c0.8-1.2,1.6-2.4,2.4-3.6l3.4,2.4C162.9,198.3,162.2,199.4,161.4,200.5z M344.5,200.4
	c-0.7-1.1-1.5-2.3-2.3-3.4l3.4-2.4c0.8,1.2,1.6,2.3,2.4,3.5L344.5,200.4z M166.1,193.9l-3.3-2.6c0.9-1.1,1.8-2.2,2.7-3.3l3.1,2.8
	C167.8,191.8,167,192.8,166.1,193.9z M339.8,193.8c-0.8-1.1-1.7-2.1-2.6-3.1l3.1-2.7c0.9,1.1,1.8,2.2,2.7,3.3L339.8,193.8z
	 M171.5,187.8l-3-2.9c1-1,2-2,3.1-3l2.8,3.1C173.4,185.9,172.4,186.8,171.5,187.8z M334.5,187.8c-0.9-1-1.9-1.9-2.9-2.8l2.8-3.1
	c1,1,2.1,2,3.1,3L334.5,187.8z M177.4,182.3l-2.7-3.2c1.1-0.9,2.2-1.8,3.4-2.6l2.5,3.3C179.5,180.6,178.5,181.4,177.4,182.3z
	 M328.5,182.3c-1-0.9-2.1-1.7-3.2-2.5l2.5-3.3c1.1,0.9,2.3,1.7,3.4,2.6L328.5,182.3z M183.9,177.5l-2.3-3.5c1.2-0.8,2.4-1.6,3.6-2.3
	l2.1,3.6C186.2,176,185,176.7,183.9,177.5z M322,177.4c-1.1-0.7-2.3-1.5-3.4-2.2l2.1-3.6c1.2,0.7,2.4,1.5,3.6,2.3L322,177.4z
	 M190.9,173.3l-1.9-3.7c1.3-0.7,2.5-1.3,3.8-1.9l1.7,3.8C193.3,172.1,192,172.7,190.9,173.3z M315.1,173.3c-1.2-0.6-2.4-1.2-3.6-1.8
	l1.7-3.8c1.3,0.6,2.6,1.2,3.8,1.9L315.1,173.3z M198.2,170l-1.5-3.9c1.3-0.5,2.7-1,4-1.5l1.3,3.9C200.7,169,199.5,169.5,198.2,170z
	 M307.7,169.9c-1.3-0.5-2.5-1-3.8-1.4l1.3-3.9c1.4,0.5,2.7,0.9,4,1.5L307.7,169.9z M205.9,167.4l-1.1-4c1.4-0.4,2.7-0.7,4.1-1
	l0.9,4.1C208.5,166.7,207.2,167,205.9,167.4z M300,167.3c-1.3-0.4-2.6-0.7-3.9-1l0.9-4.1c1.4,0.3,2.8,0.6,4.1,1L300,167.3z
	 M213.8,165.6l-0.7-4.1c1.4-0.2,2.8-0.4,4.2-0.6l0.5,4.1C216.5,165.2,215.1,165.4,213.8,165.6z M292.1,165.6c-1.3-0.2-2.7-0.4-4-0.6
	l0.5-4.1c1.4,0.2,2.8,0.4,4.2,0.6L292.1,165.6z M221.8,164.7l-0.3-4.2c1.4-0.1,2.8-0.1,4.3-0.1v4.2
	C224.5,164.6,223.2,164.6,221.8,164.7z M284,164.7c-1.3-0.1-2.7-0.1-4.1-0.1v-4.2c1.4,0,2.9,0.1,4.3,0.1L284,164.7z M275.8,164.6
	h-4.2v-4.2h4.2V164.6z M267.5,164.6h-4.2v-4.2h4.2V164.6z M259.2,164.6H255v-4.2h4.2V164.6z M250.8,164.6h-4.2v-4.2h4.2V164.6z
	 M242.5,164.6h-4.2v-4.2h4.2V164.6z M234.2,164.6H230v-4.2h4.2V164.6z"/>
<rect x="356.3" y="244.8" style="fill:#231F20;" width="4.2" height="2.1"/>
<path style="fill:#FFD05B;" d="M328.6,315.6L328.6,315.6l-149.2-0.1l0,0h-4.2v63.7c0,8.7,7,15.7,15.7,15.7h124
	c8.7,0,15.7-7,15.7-15.7v-63.5h-2V315.6z"/>
<path style="fill:#F9B54C;" d="M315,276.2H191c-8.7,0-15.7,7-15.7,15.7v23.6h2.1l0,0l149.2,0.1l0,0h4.2v-23.7
	C330.7,283.2,323.7,276.2,315,276.2z"/>
<g>
	<rect x="179.3" y="315.4" style="fill:#2B3B4E;" width="4.6" height="4.6"/>
	<rect x="183.9" y="310.9" style="fill:#2B3B4E;" width="4.6" height="4.6"/>
	<rect x="188.6" y="315.6" style="fill:#2B3B4E;" width="4.6" height="4.6"/>
	<rect x="193.2" y="310.9" style="fill:#2B3B4E;" width="4.6" height="4.6"/>
	<rect x="197.8" y="315.4" style="fill:#2B3B4E;" width="4.6" height="4.6"/>
	<rect x="202.4" y="310.9" style="fill:#2B3B4E;" width="4.6" height="4.6"/>
	<rect x="207" y="315.4" style="fill:#2B3B4E;" width="4.6" height="4.6"/>
	<rect x="211.6" y="310.9" style="fill:#2B3B4E;" width="4.6" height="4.6"/>
	<rect x="216.2" y="315.4" style="fill:#2B3B4E;" width="4.6" height="4.6"/>
	<rect x="220.8" y="310.9" style="fill:#2B3B4E;" width="4.6" height="4.6"/>
	<rect x="225.5" y="315.6" style="fill:#2B3B4E;" width="4.6" height="4.6"/>
	<rect x="230.1" y="310.9" style="fill:#2B3B4E;" width="4.6" height="4.6"/>
	<rect x="234.6" y="315.4" style="fill:#2B3B4E;" width="4.6" height="4.6"/>
	<rect x="239.2" y="310.9" style="fill:#2B3B4E;" width="4.6" height="4.6"/>
	<rect x="243.8" y="315.4" style="fill:#2B3B4E;" width="4.6" height="4.6"/>
	<rect x="248.4" y="310.9" style="fill:#2B3B4E;" width="4.6" height="4.6"/>
	<rect x="253" y="315.4" style="fill:#2B3B4E;" width="4.6" height="4.6"/>
	<rect x="257.6" y="310.9" style="fill:#2B3B4E;" width="4.6" height="4.6"/>
	<rect x="262.3" y="315.6" style="fill:#2B3B4E;" width="4.6" height="4.6"/>
	<rect x="266.9" y="310.9" style="fill:#2B3B4E;" width="4.6" height="4.6"/>
	<rect x="271.5" y="315.4" style="fill:#2B3B4E;" width="4.6" height="4.6"/>
	<rect x="276.1" y="310.9" style="fill:#2B3B4E;" width="4.6" height="4.6"/>
	<rect x="280.7" y="315.4" style="fill:#2B3B4E;" width="4.6" height="4.6"/>
	<rect x="285.2" y="310.9" style="fill:#2B3B4E;" width="4.6" height="4.6"/>
	<rect x="289.8" y="315.4" style="fill:#2B3B4E;" width="4.6" height="4.6"/>
	<rect x="294.4" y="310.9" style="fill:#2B3B4E;" width="4.6" height="4.6"/>
	<rect x="299.1" y="315.6" style="fill:#2B3B4E;" width="4.6" height="4.6"/>
	<rect x="303.7" y="310.9" style="fill:#2B3B4E;" width="4.6" height="4.6"/>
	<rect x="308.3" y="315.4" style="fill:#2B3B4E;" width="4.6" height="4.6"/>
	<rect x="312.9" y="310.9" style="fill:#2B3B4E;" width="4.6" height="4.6"/>
	<rect x="317.5" y="315.4" style="fill:#2B3B4E;" width="4.6" height="4.6"/>
	<rect x="322.1" y="310.9" style="fill:#2B3B4E;" width="4.6" height="4.6"/>
	<path style="fill:#2B3B4E;" d="M207.1,345.3l-2.8-19.6c-0.6-4.1-4.2-7.3-8.4-7.3s-7.8,3.1-8.4,7.3l-2.8,19.6
		c-0.5,3.2,0.5,6.5,2.6,9s5.2,3.9,8.5,3.9s6.4-1.4,8.5-3.9C206.6,351.8,207.6,348.5,207.1,345.3z M195.9,351.1
		c-2.7,0-4.8-2.2-4.8-4.8s2.2-4.8,4.8-4.8c2.7,0,4.8,2.2,4.8,4.8S198.6,351.1,195.9,351.1z"/>
</g>
<path style="fill:#324A5E;" d="M356.3,255.1h4.2c0-44.7-36.3-81-81-81h-53c-44.7,0-81,36.3-81,81h4.2l0,0H356.3L356.3,255.1z"/>
</svg>