<?xml version="1.0" encoding="iso-8859-1"?>
<!-- Uploaded to: SVG Repo, www.svgrepo.com, Generator: SVG Repo Mixer Tools -->
<svg height="800px" width="800px" version="1.1" id="Layer_1" xmlns="http://www.w3.org/2000/svg" xmlns:xlink="http://www.w3.org/1999/xlink" 
	 viewBox="0 0 496.182 496.182" xml:space="preserve">
<path style="fill:#29C183;" d="M248.094,0C111.074,0,0,111.063,0,248.091c0,137.012,111.074,248.091,248.094,248.091
	c137.012,0,248.088-111.079,248.088-248.091C496.182,111.063,385.106,0,248.094,0z"/>
<path style="fill:#146F84;" d="M397.272,297.875l-59.11,16.255c0,0,18.472,1.478,39.9,10.345c0,0,34.726,14.039,78.32,3.694
	C456.382,328.169,431.999,305.264,397.272,297.875z"/>
<path style="fill:#1C7F99;" d="M219.202,108.012v-0.028c-0.358-0.003-0.697,0.012-1.053,0.009c-0.188,0-0.371-0.009-0.561-0.009
	v0.015C50.161,107.771,71.427,298.614,71.427,298.614c42.032,32.692,130.439,3.938,147.205-1.951
	c114.357-51.248,163.805-23.095,163.805-23.095C378.064,222.053,353.202,108.924,219.202,108.012z"/>
<g>
	<path style="fill:#166B7F;" d="M208.295,113.202l-3.802-4.525c-32.675,27.434-51.199,70.552-53.574,124.694
		c-1.782,40.684,6.221,73.747,6.304,74.077l5.737-1.413C162.647,304.753,132.263,177.041,208.295,113.202z"/>
	<path style="fill:#166B7F;" d="M287.666,135.08c-28.639-22.216-55.907-27.799-57.054-28.025l-1.15,5.798
		c0.271,0.054,27.247,5.614,54.796,27.065c25.351,19.738,56.688,59.085,60.81,126.546l5.9-0.36
		C346.701,196.297,314.075,155.567,287.666,135.08z"/>
</g>
<path style="fill:#1F8AA3;" d="M307.128,267.581c-36.943,6.65-179.547,46.549-179.547,46.549s36.943,59.11,107.876,59.85
	c0,0,25.122,3.694,67.977-33.987c0,0,85.587-61.019,143.286-19.705l-65.704-50.489C381.016,269.798,344.071,260.932,307.128,267.581
	z M446.72,320.287l4.489,3.449C449.736,322.508,448.235,321.371,446.72,320.287z"/>
<path style="fill:#1B788E;" d="M216.246,89.512c-10.202,0-18.472,8.104-18.472,18.103c0,9.997,36.943,9.997,36.943,0
	C234.718,97.616,226.447,89.512,216.246,89.512z"/>
</svg>