<?xml version="1.0" encoding="iso-8859-1"?>
<!-- Uploaded to: SVG Repo, www.svgrepo.com, Generator: SVG Repo Mixer Tools -->
<svg height="800px" width="800px" version="1.1" id="Layer_1" xmlns="http://www.w3.org/2000/svg" xmlns:xlink="http://www.w3.org/1999/xlink" 
	 viewBox="0 0 496.158 496.158" xml:space="preserve">
<path style="fill:#A3D5E0;" d="M248.082,0.002C111.07,0.002,0,111.062,0,248.085c0,137,111.07,248.07,248.082,248.07
	c137.006,0,248.076-111.07,248.076-248.07C496.158,111.062,385.088,0.002,248.082,0.002z"/>
<polygon style="fill:#AA2020;" points="305.157,267.767 295.618,266.9 296.051,295.953 313.396,299.855 "/>
<path style="fill:#E5A079;" d="M184.828,293.568c-1.251-3.995-3.424-6.672-5.913-8.462l0.059,0.007l2.168-9.323l-17.562-0.434
	l-0.974,7.013c-18.079,9.576-5.964,36.35-5.964,36.35c4.12,1.3,3.687-0.65,3.687-0.65c2.818-3.47,2.818-14.31,2.818-14.31
	c1.301-10.841,9.756-10.841,9.756-10.841v17.778c0.65,5.421,6.288,2.168,6.288,2.168
	C187.43,307.661,184.828,293.568,184.828,293.568z"/>
<path style="fill:#AC785B;" d="M177.023,302.836c0-9.973-4.12-9.919-4.12-9.919s-0.271,13.388-0.054,18.809
	c0.052,1.313,2.209,2.019,2.431,2.056C177.069,314.089,177.023,302.836,177.023,302.836z"/>
<path style="fill:#E5A079;" d="M333.552,277.815l-0.974-7.013l-17.562,0.433l2.168,9.324l0.059-0.007
	c-2.489,1.79-4.661,4.468-5.913,8.461c0,0-2.602,14.093,5.637,19.297c0,0,5.637,3.251,6.287-2.168v-17.778c0,0,8.456,0,9.756,10.841
	c0,0,0,10.84,2.818,14.309c0,0-0.433,1.952,3.687,0.651C339.516,314.165,351.631,287.391,333.552,277.815z"/>
<path style="fill:#AC785B;" d="M323.255,288.365c0,0-4.119-0.055-4.119,9.919c0,0-0.047,11.251,1.743,10.946
	c0.221-0.038,2.378-0.743,2.43-2.058C323.526,301.753,323.255,288.365,323.255,288.365z"/>
<path style="fill:#6D8DC6;" d="M197.33,267.189v31.221l0.402,70.987c10.985,13.298,34.569,3.805,34.569,3.805
	c4.626-75.161,24.001-62.65,24.001-62.65c5.203,12.719,9.25,52.611,9.25,52.611c19.658,13.298,34.689,4.047,34.689,4.047
	l2.312-102.912L197.33,267.189z"/>
<path style="fill:#5B7BAA;" d="M264.686,319.223c-2.313-6.649-8.383-8.671-8.383-8.671c5.203,12.719,9.25,52.721,9.25,52.721
	c1.75,1.183,3.598,2.159,5.267,3.008C270.82,366.28,266.488,324.404,264.686,319.223z"/>
<path style="fill:#D9EDED;" d="M200.8,152.135c0,0-11.853,1.59-17.923,7.661c0,0-9.54,10.841-12.576,28.619l-11.274,80.219
	c0,0-3.035,7.806,2.602,9.107c0,0,11.708,3.034,19.513,0.867c0,0,4.986,0.65,6.504-9.54l9.685-70.68
	C197.33,198.388,214.387,173.961,200.8,152.135z"/>
<path style="fill:#D7E2E2;" d="M335.077,262.13l-9.54-72.415c0,0,1.012-31.365-28.764-39.314l15.321,122.136
	c0,0,17.345,0.434,20.38-1.301C332.475,271.236,335.944,268.634,335.077,262.13z"/>
<path style="fill:#2F2E33;" d="M297.352,79.287c-2.024-4.915-6.938-30.354-40.761-36.424c0,0-32.087-2.603-47.698,21.97
	c0,0-17.345,19.657-1.156,66.488h81.521c0,0,6.07-11.563,6.07-28.329c0,0,4.336-5.203,2.891-17.056
	C298.22,85.937,299.375,84.201,297.352,79.287z"/>
<g>
	<circle style="fill:#E5A079;" cx="250.739" cy="94.538" r="41.41"/>
	<polygon style="fill:#E5A079;" points="226.817,127.564 226.817,142.017 272.202,142.017 272.202,129.009 	"/>
</g>
<path style="fill:#2F2E33;" d="M280.007,61.365l-29.269-14.093l-36.207,14.527l-12.575,41.194c0,0,9.539-1.734,13.875-5.637
	c0,0,5.204-8.239,4.336-12.575l16.478-9.106c0,0,3.902,1.734,6.938,0.433c0,0,3.902,3.903,9.54,0.434c0,0,3.903,5.203,6.071,5.637
	c2.168,0.433,9.973-7.806,9.973-7.806s3.902,3.469,5.637,3.903c1.734,0.434,3.035-3.903,3.035-3.903s9.973,9.54,20.38,10.407
	L280.007,61.365z"/>
<g>
	<circle style="fill:#644B44;" cx="246.909" cy="90.708" r="5.636"/>
	<ellipse style="fill:#644B44;" cx="277.259" cy="91.138" rx="5.059" ry="5.492"/>
	<path style="fill:#644B44;" d="M269.314,105.057c-0.132-0.219-0.396-0.387-0.726-0.463c-0.329-0.078-0.69-0.054-0.991,0.064
		c-2.136,0.837-4.151,1.26-5.99,1.26c-3.665,0-5.475-1.678-5.545-1.747c-0.286-0.279-0.795-0.41-1.282-0.327
		c-0.559,0.095-1.014,0.343-1.282,0.697c-0.637,0.84-0.105,2.167,0.452,3.131c0.761,1.316,3.488,3.405,7.57,3.405
		c1.007,0,2.041-0.13,3.072-0.385c2.307-0.57,3.857-1.447,4.609-2.605C270.198,106.554,269.35,105.118,269.314,105.057z"/>
</g>
<path style="fill:#ED3232;" d="M315.853,298.988c0.579-4.625-6.359-63.599-6.359-63.599c-1.156-8.671-5.782-65.909-5.782-65.909
	c0-12.72-6.938-19.08-6.938-19.08c-2.891-2.313-24.86-12.719-24.86-12.719h-45.097c-4.625,4.625-26.017,14.454-26.017,14.454
	c12.72,21.392-3.469,46.253-3.469,46.253l-13.298,97.131c19.658,19.656,24.861,11.563,24.861,11.563l2.313-24.86
	c0-9.251,6.36-8.094,6.36-8.094s81.449-3.717,83.49-3.847c2.042-0.128,4.452,0.529,4.927,2.748s5.245,28.85,5.245,28.85
	C318.166,300.723,315.853,298.988,315.853,298.988z"/>
<path style="fill:#EF4B4B;" d="M271.913,137.682h-45.097c-4.625,4.625-26.017,14.454-26.017,14.454
	c12.72,21.392-3.469,46.253-3.469,46.253l-13.298,97.131c19.658,19.656,24.861,11.563,24.861,11.563l2.313-24.86
	c0-9.251,85.567-131.821,85.567-131.821C293.883,148.088,271.913,137.682,271.913,137.682z"/>
<path style="fill:#7C5C4F;" d="M320.551,430.592c0,0-14.526-24.282-15.61-27.101c0,0-2.168-6.721-2.385-11.925l-0.867-25.149
	c0,0-0.731-0.447-1.409-0.325l-0.042,1.04c-4.555,2.028-19.233,6.96-35.623-4.4c0,0,2.168,26.668,2.168,33.388
	c0,0-2.819,14.96-3.903,19.514c0,0-1.084,6.721,1.301,8.889l16.044,15.394c0,0,6.721,9.54,25.584,6.938c0,0,11.924-1.3,14.743-5.637
	C320.551,441.215,321.851,433.626,320.551,430.592z"/>
<path style="fill:#6D4F44;" d="M276.105,415.344c-2.602-18.068-5.285-49.063-5.285-49.063c-1.689-0.843-3.429-1.739-5.154-2.954
	l-0.212-1.057c-0.118-0.086-0.542,0.19-0.84,0.46c0,0,2.168,26.668,2.168,33.388c0,0-2.819,14.96-3.903,19.514
	c0,0-1.084,6.721,1.301,8.889l16.044,15.394c0,0,3.572,5.069,12.816,6.81C296.476,447.37,277.797,427.098,276.105,415.344z"/>
<path style="fill:#7C5C4F;" d="M252.617,436.663c0,0-14.526-24.283-15.61-27.101c0,0-2.168-6.721-2.385-11.924l-0.867-25.15
	c0,0-0.731-0.448-1.409-0.326l-0.043,1.041c-4.554,2.026-19.233,6.96-35.622-4.401c0,0,2.168,26.668,2.168,33.389
	c0,0-2.818,14.96-3.902,19.513c0,0-1.084,6.721,1.301,8.89l16.043,15.393c0,0,6.721,9.54,25.584,6.938
	c0,0,11.924-1.301,14.743-5.637C252.617,447.286,253.918,439.698,252.617,436.663z"/>
<path style="fill:#6D4F44;" d="M208.171,421.414c-2.602-18.068-5.285-49.063-5.285-49.063c-1.689-0.842-3.429-1.739-5.153-2.954
	l-0.005-1.03c-0.118-0.086-0.75,0.163-1.048,0.433c0,0,2.168,26.668,2.168,33.389c0,0-2.818,14.96-3.902,19.513
	c0,0-1.084,6.721,1.301,8.89l16.043,15.393c0,0,3.572,5.07,12.816,6.81C228.542,453.441,209.864,433.168,208.171,421.414z"/>
<path style="fill:#EE8080;" d="M218.144,157.917c-4.047-6.36-6.513-2.866-5.782,1.156c6.359,34.979,2.891,101.757,2.891,101.757
	C229.129,249.844,222.191,164.276,218.144,157.917z"/>
<path style="fill:#CBBEB9;" d="M211.671,421.43c10.569,4.557,24.573-3.163,24.573-3.163
	C208.474,416.926,211.671,421.43,211.671,421.43z"/>
<g>
	<path style="fill:#6D4F44;" d="M320.883,431.736l-0.115-0.205c0,0,4.335,13.443-32.088,7.661l4.134,7.485
		c3.478,0.682,7.768,0.896,12.995,0.174c0,0,11.924-1.3,14.743-5.637C320.551,441.215,321.579,435.197,320.883,431.736z"/>
	<path style="fill:#6D4F44;" d="M252.95,437.807l-0.116-0.206c0,0,4.336,13.442-32.088,7.661l4.134,7.486
		c3.477,0.682,7.768,0.895,12.994,0.174c0,0,11.924-1.301,14.743-5.637C252.617,447.286,253.645,441.267,252.95,437.807z"/>
</g>
<path style="fill:#CBBEB9;" d="M278.883,416.66c10.568,4.557,24.573-3.162,24.573-3.162
	C275.684,412.156,278.883,416.66,278.883,416.66z"/>
<path style="fill:#E8F4F4;" d="M175.505,182.778c0,0,14.31-5.204,20.38-26.018C195.885,156.76,181.142,160.663,175.505,182.778z"/>
<path style="fill:#EFC6AF;" d="M214.615,102.745c0,0,5.5,27.667,28.333,25C242.948,127.746,228.948,125.078,214.615,102.745z"/>
</svg>