<?xml version="1.0" encoding="iso-8859-1"?>
<!-- Uploaded to: SVG Repo, www.svgrepo.com, Generator: SVG Repo Mixer Tools -->
<svg height="800px" width="800px" version="1.1" id="Layer_1" xmlns="http://www.w3.org/2000/svg" xmlns:xlink="http://www.w3.org/1999/xlink" 
	 viewBox="0 0 496.182 496.182" xml:space="preserve">
<path style="fill:#F7DA5E;" d="M248.094,0C111.074,0,0,111.063,0,248.091c0,137.012,111.074,248.091,248.094,248.091
	c137.012,0,248.088-111.079,248.088-248.091C496.182,111.063,385.106,0,248.094,0z"/>
<g>
	<path style="fill:#49A0AE;" d="M247.492,26.465c-15.665,0-55.785,33.473-55.785,76.728c0,69.769,27.464,68.761,55.785,68.761
		c28.324,0,55.788,1.319,55.788-68.761C303.28,59.938,266.141,26.465,247.492,26.465z"/>
	<path style="fill:#49A0AE;" d="M387.272,266.346c-3.761-22.791-14.67-43.626-40.965-95.561
		c-7.406-14.627-54.851-22.938-54.851-22.938S252.834,169.6,248.091,169.6c-5.606,0-48.199-21.752-48.199-21.752
		s-42.785,8.23-50.018,22.938c-23.872,48.547-37.205,72.77-40.964,95.561c-3.764,22.789,2.98,136.447,2.98,136.447
		s6.588,0.22,14.039-1.313c7.449-1.535,10.505-5.698,10.505-5.698s2.021-107.23,5.244-120.67
		c3.223-13.44,26.903-48.023,26.903-48.023l11.292,88.928l-14.36,97.297c0,11.833,15.094,14.766,33.716,14.766h97.72
		c18.624,0,33.719-2.933,33.719-14.766l-14.362-97.297L327.6,227.09c0,0,23.68,34.583,26.902,48.023
		c3.224,13.439,5.245,120.67,5.245,120.67s2.409,3.067,9.861,5.698c7.45,2.629,14.681,1.313,14.681,1.313
		S391.035,289.135,387.272,266.346z"/>
</g>
<g>
	<path style="fill:#459AA3;" d="M168.796,210.832c-0.219-6.794-2.923-22.791-2.923-22.791s-0.875,25.42,2.506,39.047
		C168.379,227.088,169.014,217.624,168.796,210.832z"/>
	<path style="fill:#459AA3;" d="M330.164,188.041c0,0-2.7,15.997-2.92,22.791c-0.217,6.792,0.418,16.256,0.418,16.256
		C331.043,213.461,330.164,188.041,330.164,188.041z"/>
</g>
<g>
	<path style="fill:#3D8991;" d="M269.636,191.431c0-8.047,2.801-27.493,2.801-27.493h-2.801c0,0-2.8,19.446-2.8,27.493
		c0,8.048,6.068,39.563,5.601,52.305c-0.467,12.741-2.801,26.151-2.801,26.151h2.801c0,0,2.334-13.41,2.802-26.151
		C275.704,230.994,269.636,199.479,269.636,191.431z"/>
	<circle style="fill:#3D8991;" cx="270.801" cy="164.171" r="3.034"/>
	<path style="fill:#3D8991;" d="M228.291,251.373c0.467-12.74,2.256-47.028,2.256-55.075s-3.5-32.36-3.5-32.36h-2.801
		c0,0,3.501,24.313,3.501,32.36s-1.79,42.335-2.257,55.075s2.179,27.071,2.179,27.071h2.8
		C230.469,278.445,227.824,264.113,228.291,251.373z"/>
	<circle style="fill:#3D8991;" cx="225.411" cy="164.171" r="3.034"/>
	<path style="fill:#3D8991;" d="M247.708,46.008c-23.177,0-41.97,19.872-41.97,56.774c0,36.901,41.97,66.817,41.97,66.817
		s41.972-29.916,41.972-66.817C289.68,65.88,270.891,46.008,247.708,46.008z"/>
</g>
</svg>