<?xml version="1.0" encoding="iso-8859-1"?>
<!-- Uploaded to: SVG Repo, www.svgrepo.com, Generator: SVG Repo Mixer Tools -->
<svg height="800px" width="800px" version="1.1" id="Layer_1" xmlns="http://www.w3.org/2000/svg" xmlns:xlink="http://www.w3.org/1999/xlink" 
	 viewBox="0 0 504 504" xml:space="preserve">
<circle style="fill:#84DBFF;" cx="252" cy="252" r="252"/>
<path style="fill:#FF7058;" d="M214.4,416L88,289.6c-5.2-5.2-5.2-13.2,0-18.4L243.2,116c2.4-2.4,5.6-3.6,8.8-3.6l128.4-2
	c7.2,0,13.2,6,13.2,13.2l-2,128.4c0,3.2-1.6,6.4-3.6,8.8L232.4,416C227.6,421.2,219.2,421.2,214.4,416z"/>
<g>
	<path style="fill:#F6F6F6;" d="M250.8,152.8L132,271.6c-5.2,5.2-5.2,13.2,0,18.4l82.4,82c5.2,5.2,13.2,5.2,18.4,0l118.8-118.8
		c5.2-5.2,5.2-13.2,0-18.4l-82.8-82C264,147.6,255.6,147.6,250.8,152.8z"/>
	<circle style="fill:#F6F6F6;" cx="347.6" cy="156.4" r="19.6"/>
</g>
<path style="fill:#2B3B4E;" d="M200.4,240.4c-1.6-16.4,6.4-28.4,16.8-33.2c24.4-11.2,54,10,54.8,41.2c1.2,64.4,1.2,64.4,1.2,64.4
	s0,0-64.4-1.2c-31.2-0.8-52.4-30.4-41.2-54.8C172,246.8,184,238.4,200.4,240.4z"/>
<path style="fill:#FFD05B;" d="M236.8,187.2c-6.8,3.2-12.4,9.6-15.2,18.4c23.6-6.8,49.6,13.6,50,43.2c0.4,20.8,0.8,34.8,0.8,44.4
	c20.4,0.4,20.4,0.4,20.4,0.4s0,0-1.2-64.4C291.2,197.2,261.6,176,236.8,187.2z"/>
</svg>