<?xml version="1.0" encoding="iso-8859-1"?>
<!-- Uploaded to: SVG Repo, www.svgrepo.com, Generator: SVG Repo Mixer Tools -->
<svg version="1.1" id="Layer_1" xmlns="http://www.w3.org/2000/svg" xmlns:xlink="http://www.w3.org/1999/xlink" 
	 viewBox="0 0 512 512" xml:space="preserve">
<circle style="fill:#FD8469;" cx="256" cy="256" r="256"/>
<path style="fill:#FC6F58;" d="M512,256c0-9.807-0.571-19.48-1.645-29L370.543,87.188l-89.547,126.864l-141.998,202.73
	l94.196,94.196c7.516,0.664,15.119,1.022,22.807,1.022C397.384,512,512,397.384,512,256z"/>
<path style="fill:#324A5E;" d="M351.994,426.667h-191.99c-15.058,0-27.264-12.207-27.264-27.264v-292.24
	c0-15.058,12.207-27.264,27.264-27.264h191.99c15.058,0,27.264,12.207,27.264,27.264v292.24
	C379.259,414.46,367.052,426.667,351.994,426.667z"/>
<path style="fill:#2B3B4E;" d="M351.994,79.898h-96.57v346.769h96.57c15.058,0,27.264-12.207,27.264-27.264v-292.24
	C379.259,92.105,367.052,79.898,351.994,79.898z"/>
<rect x="141.464" y="106.646" style="fill:#F4E3C3;" width="229.09" height="269.395"/>
<rect x="255.431" y="106.646" style="fill:#FED8B2;" width="115.117" height="269.395"/>
<circle style="fill:#2B3B4E;" cx="256" cy="401.825" r="13.374"/>
<path style="fill:#1A2733;" d="M256,388.456c-0.193,0-0.383,0.021-0.574,0.029v26.69c0.191,0.009,0.381,0.029,0.574,0.029
	c7.387,0,13.374-5.987,13.374-13.374C269.374,394.443,263.385,388.456,256,388.456z"/>
<path style="fill:#4CDBC4;" d="M358.86,198.249l-17.527-10.516v-6.723c0-6.189-5.017-11.205-11.205-11.205H210.316
	c-6.189,0-11.205,5.017-11.205,11.205v34.478c0,6.189,5.017,11.205,11.205,11.205h119.811c6.189,0,11.205-5.017,11.205-11.205
	v-6.723L358.86,198.249z"/>
<path style="fill:#30B299;" d="M341.333,187.733v-6.723c0-6.189-5.017-11.205-11.205-11.205h-74.702v56.889h74.702
	c6.189,0,11.205-5.017,11.205-11.205v-6.723l17.527-10.516L341.333,187.733z"/>
<path style="fill:#4CDBC4;" d="M153.138,293.926l17.529,10.516v6.723c0,6.189,5.017,11.205,11.205,11.205h119.811
	c6.189,0,11.205-5.017,11.205-11.205v-34.478c0-6.189-5.017-11.205-11.205-11.205H181.872c-6.189,0-11.205,5.017-11.205,11.205
	v6.723L153.138,293.926z"/>
<path style="fill:#30B299;" d="M301.684,265.481h-46.258v56.889h46.258c6.189,0,11.205-5.017,11.205-11.205v-34.478
	C312.887,270.498,307.871,265.481,301.684,265.481z"/>
<path style="fill:#C75163;" d="M280.997,136.407c0-6.903,5.596-12.497,12.498-12.497c6.903,0,12.498,5.596,12.498,12.497
	c0-6.903,5.596-12.497,12.498-12.497s12.498,5.596,12.498,12.497c0,11.95-24.997,26.245-24.997,26.245
	S280.997,149.03,280.997,136.407z"/>
<path style="fill:#FF6472;" d="M149.118,233.612c0-6.903,5.596-12.497,12.498-12.497c6.903,0,12.498,5.596,12.498,12.497
	c0-6.903,5.596-12.497,12.498-12.497s12.498,5.596,12.498,12.497c0,11.95-24.997,26.245-24.997,26.245
	S149.118,246.236,149.118,233.612z"/>
<path style="fill:#C75163;" d="M287.892,341.333c0-6.902,5.596-12.497,12.498-12.497s12.498,5.596,12.498,12.497
	c0-6.902,5.596-12.497,12.498-12.497c6.902,0,12.498,5.594,12.498,12.497c0,11.95-24.997,26.245-24.997,26.245
	S287.892,353.957,287.892,341.333z"/>
</svg>