<?xml version="1.0" encoding="iso-8859-1"?>
<!-- Uploaded to: SVG Repo, www.svgrepo.com, Generator: SVG Repo Mixer Tools -->
<svg version="1.1" id="Layer_1" xmlns="http://www.w3.org/2000/svg" xmlns:xlink="http://www.w3.org/1999/xlink" 
	 viewBox="0 0 512 512" xml:space="preserve">
<circle style="fill:#FFBBD5;" cx="256" cy="256" r="256"/>
<path style="fill:#FF9CC2;" d="M437.019,437.019c41.201-41.2,65.405-92.953,72.647-146.558l-70.932-70.93l-29.749,24.242
	L271.929,106.717l-41.212,62.698L119.38,350.37l160.511,160.511C337.232,505.539,393.116,480.923,437.019,437.019z"/>
<rect x="100.157" y="121.112" transform="matrix(-0.986 0.1665 -0.1665 -0.986 426.6194 421.299)" style="fill:#E6F3FF;" width="190.984" height="214.842"/>
<polygon style="fill:#CFDBE6;" points="271.929,106.717 180.193,122.204 212.149,334.708 307.7,318.574 "/>
<rect x="106.45" y="133.008" transform="matrix(-0.986 0.1665 -0.1665 -0.986 410.9142 360.0082)" style="fill:#FFD15D;" width="167.833" height="128.443"/>
<polygon style="fill:#F9B54C;" points="262.423,119.944 181.898,133.539 201.002,260.587 283.81,246.606 "/>
<rect x="214.508" y="176.054" transform="matrix(-0.9275 -0.3737 0.3737 -0.9275 491.598 662.2604)" style="fill:#FFFFFF;" width="190.983" height="214.84"/>
<polygon style="fill:#E6F3FF;" points="438.734,219.531 349.515,183.584 273.784,384.714 358.44,418.821 "/>
<rect x="237.943" y="189.804" transform="matrix(-0.9275 -0.3737 0.3737 -0.9275 525.4628 609.9289)" style="fill:#D24146;" width="167.832" height="128.442"/>
<polygon style="fill:#C1321F;" points="423.715,225.835 345.476,194.312 300.199,314.559 375.71,344.983 "/>
<path style="fill:#FFD15D;" d="M289.804,235.26c3.677-9.681,14.507-14.55,24.19-10.873c9.683,3.677,14.551,14.507,10.874,24.188
	c3.677-9.681,14.507-14.55,24.19-10.873c9.683,3.677,14.551,14.507,10.874,24.188c-6.366,16.763-49.045,23.497-49.045,23.497
	S283.079,252.968,289.804,235.26z"/>
<path style="fill:#F9B54C;" d="M349.056,237.704c-8.949-3.398-18.863,0.51-23.221,8.763l-14.636,38.871
	c3.727-0.622,42.67-7.487,48.731-23.445C363.608,252.213,358.74,241.383,349.056,237.704z"/>
<path style="fill:#D83E20;" d="M153.266,194.807c-1.222-10.285,6.125-19.611,16.412-20.833c10.285-1.222,19.613,6.125,20.835,16.408
	c-1.222-10.285,6.125-19.611,16.412-20.833c10.285-1.222,19.613,6.125,20.835,16.408c2.115,17.806-32.601,43.529-32.601,43.529
	S155.5,213.616,153.266,194.807z"/>
<path style="fill:#C1321F;" d="M227.757,185.956c-1.222-10.285-10.55-17.63-20.835-16.408
	c-10.285,1.222-17.632,10.549-16.412,20.833c-0.086-0.722-0.221-1.427-0.384-2.119l6.078,40.424
	C201.95,224.244,229.655,201.925,227.757,185.956z"/>
</svg>