<?xml version="1.0" encoding="iso-8859-1"?>
<!-- Uploaded to: SVG Repo, www.svgrepo.com, Generator: SVG Repo Mixer Tools -->
<svg height="800px" width="800px" version="1.1" id="Layer_1" xmlns="http://www.w3.org/2000/svg" xmlns:xlink="http://www.w3.org/1999/xlink" 
	 viewBox="0 0 512 512" xml:space="preserve">
<path style="fill:#FFEBB4;" d="M502.414,186.381L308.003,308.001L186.387,502.416C208.522,508.656,231.87,512,256,512
	c141.385,0,256-114.615,256-256C512,231.868,508.656,208.517,502.414,186.381z"/>
<path style="fill:#FF9356;" d="M256,0C114.615,0,0,114.615,0,256c0,117.255,78.833,216.092,186.387,246.416l316.027-316.034
	C472.088,78.83,373.253,0,256,0z"/>
<path style="fill:#FFB14E;" d="M502.426,186.369L186.392,502.412c-6.242-22.136-9.58-45.488-9.58-69.62
	c0-141.385,114.615-256,256-256C456.942,176.79,480.292,180.129,502.426,186.369z"/>
</svg>